<svg width="1600" height="58" fill="none" xmlns="http://www.w3.org/2000/svg"><g clip-path="url(#clip0)"><path fill="#fff" d="M0-838h1600v6242H0z"/><path d="M1600-838H0V47.155c707.5 47.4 808-80.855 1600 0V-838z" fill="#FFF5F5"/><g opacity=".5" filter="url(#filter0_f)"><ellipse cx="1172.5" cy="-58.5" rx="212.5" ry="13.5" fill="#262834" fill-opacity=".58"/></g><path opacity=".3" d="M1429.28-353.084c-13.07-2.109-26.15-4.026-39.22-5.944-90.36-13.036-90.17-89.148-143.81-85.314-35.57 2.492-63.26 59.241-88.44 27.224-55.95-71.319-119.21-27.224-136.9 31.25-9.03 29.716-4.61 48.313-5.76 89.916-2.12 63.65-77.679 46.395-138.242 83.397-57.295 35.084-58.641 97.392-16.919 129.026 65.369 49.463 137.853-13.229 194.381 36.618 100.94 89.34 114.2 30.1 193.22-6.135 68.64-31.633 114.59 7.669 178.04 6.135 51.53 1.726 90.94-16.871 120.93-55.406 76.53-98.735 4.04-230.254-117.28-250.767z" fill="url(#paint0_linear)"/></g><defs><linearGradient id="paint0_linear" x1="1245.46" y1="-52.754" x2="1169.55" y2="-274.615" gradientUnits="userSpaceOnUse"><stop stop-color="#FE8900"/><stop offset="1" stop-color="#FE5500"/></linearGradient><clipPath id="clip0"><path fill="#fff" transform="translate(0 -838)" d="M0 0h1600v6242H0z"/></clipPath><filter id="filter0_f" x="910" y="-122" width="525" height="127" filterUnits="userSpaceOnUse" color-interpolation-filters="sRGB"><feFlood flood-opacity="0" result="BackgroundImageFix"/><feBlend in="SourceGraphic" in2="BackgroundImageFix" result="shape"/><feGaussianBlur stdDeviation="25" result="effect1_foregroundBlur"/></filter></defs></svg>