<svg width="45" height="45" fill="none" xmlns="http://www.w3.org/2000/svg"><path d="M44.729 1.09A1.09 1.09 0 0043.638 0H33.61a1.09 1.09 0 000 2.182h7.547L26.733 17.069a3.26 3.26 0 01-4.224.406l-5.97-4.17a5.473 5.473 0 00-7.139.781L.288 24a1.091 1.091 0 001.606 1.476l9.113-9.913a3.284 3.284 0 014.283-.469l5.97 4.17a5.433 5.433 0 007.04-.677L42.547 3.885v7.233a1.091 1.091 0 102.182 0V1.091zm0 42.324V22.96a1.091 1.091 0 00-2.182 0v19.364h-10.67V28.1a1.09 1.09 0 00-2.181 0v14.223h-10.67v-8.246a1.09 1.09 0 00-2.182 0v8.246H5.532v-8.198a1.091 1.091 0 00-2.182 0v9.289c0 .602.488 1.09 1.09 1.09h39.198a1.09 1.09 0 001.09-1.09z" fill="#E80F0F"/></svg>