<svg width="20" height="20" fill="none" xmlns="http://www.w3.org/2000/svg"><path d="M10 19.997c5.523 0 10-4.477 10-9.999S15.523 0 10 0 0 4.476 0 9.998c0 5.522 4.477 9.999 10 9.999z" fill="#273B7A"/><path d="M19.775 12.114L13.66 6l-5.098.407L5.96 8.784l.335 5.17 5.789 5.824a10.01 10.01 0 007.692-7.664z" fill="#121149"/><path d="M10.218 9.079v1.915h2.997a3.367 3.367 0 01-6.58-.997A3.365 3.365 0 0110 6.633a3.35 3.35 0 012.255.872L13.66 6a5.421 5.421 0 101.68 3.079h-5.123z" fill="#4285F4"/><path d="M10 6.634a3.35 3.35 0 012.255.872L13.66 6a5.42 5.42 0 00-8.45 1.46l1.653 1.325A3.364 3.364 0 0110 6.634z" fill="#EA4335"/><path d="M6.635 9.999c0-.429.083-.837.23-1.214L5.21 7.459A5.397 5.397 0 004.58 10c0 .922.23 1.79.637 2.55l1.644-1.348A3.351 3.351 0 016.635 10z" fill="#FBBC05"/><path d="M11.871 12.793c-.535.36-1.177.57-1.87.57a3.363 3.363 0 01-3.14-2.162l-1.645 1.348a5.42 5.42 0 008.308 1.568l-1.653-1.324z" fill="#34A853"/><path d="M15.422 9.998c0-.314-.03-.62-.08-.92h-5.124v1.917h2.997a3.371 3.371 0 01-1.344 1.798l1.653 1.323a5.408 5.408 0 001.898-4.118z" fill="#4285F4"/></svg>