<svg width="20" height="20" fill="none" xmlns="http://www.w3.org/2000/svg"><path d="M19.658 3.576A3.641 3.641 0 0016.423.342a60.42 60.42 0 00-12.846 0A3.641 3.641 0 00.342 3.576a60.381 60.381 0 000 12.843 3.641 3.641 0 003.235 3.234c4.278.457 8.568.457 12.846 0a3.641 3.641 0 003.235-3.234 60.387 60.387 0 000-12.843z" fill="url(#paint0_radial)"/><path d="M18.57 4.3a3.231 3.231 0 00-2.87-2.87 53.638 53.638 0 00-11.4 0A3.232 3.232 0 001.43 4.3a53.598 53.598 0 000 11.395 3.231 3.231 0 002.87 2.87c3.797.405 7.604.405 11.4 0a3.23 3.23 0 002.87-2.87c.405-3.794.405-7.6 0-11.395z" fill="url(#paint1_linear)"/><path d="M.3 16.003l.042.415a3.642 3.642 0 003.235 3.234c4.278.457 8.568.457 12.845 0a3.641 3.641 0 003.235-3.234c.015-.139.03-.277.043-.415H.3z" fill="url(#paint2_linear)"/><path d="M19.657 16.42c.246-2.298.359-4.6.34-6.9l-4.57-4.571c-.572-.652-1.406-1.059-2.386-1.094a86.142 86.142 0 00-6.055 0c-1.674.058-2.845 1.183-3.145 2.837-.053.292-.085.588-.127.882v4.848c.023.157.057.314.068.472.067 1.006.48 1.867 1.143 2.45l4.652 4.651a60.484 60.484 0 006.846-.34 3.641 3.641 0 003.235-3.235z" fill="url(#paint3_linear)"/><path d="M19.657 16.418a3.641 3.641 0 01-3.234 3.234c-2.28.243-4.563.357-6.846.341L4.932 15.35c.538.471 1.24.758 2.055.789a82.41 82.41 0 006.054.001c1.823-.066 3.142-1.415 3.199-3.238a93.79 93.79 0 000-5.81c-.026-.842-.321-1.581-.81-2.141l4.568 4.567a60.547 60.547 0 01-.34 6.901z" fill="url(#paint4_linear)"/><path d="M12.36 7.833a3.203 3.203 0 10-4.526 4.525l7.412 7.41a76.81 76.81 0 001.177-.114 3.641 3.641 0 003.235-3.235c.042-.392.08-.784.114-1.176l-7.412-7.41z" fill="url(#paint5_linear)"/><path d="M19.961 12.152l-5.965-5.964a.76.76 0 10-1.066 1.067l6.925 6.923c.047-.675.082-1.35.106-2.026z" fill="url(#paint6_linear)"/><path d="M3.714 7.574c.042-.294.074-.59.127-.882.3-1.654 1.471-2.78 3.145-2.837a86.142 86.142 0 016.055 0c1.822.065 3.142 1.415 3.199 3.237.06 1.936.06 3.876 0 5.811-.057 1.823-1.376 3.172-3.2 3.238a82.358 82.358 0 01-6.053-.001c-1.823-.069-3.083-1.421-3.205-3.247-.01-.157-.045-.314-.068-.471V7.574zm6.288 7.486c.922 0 1.846.028 2.767-.006 1.444-.053 2.333-.915 2.367-2.358.042-1.798.042-3.598 0-5.396-.034-1.443-.923-2.325-2.367-2.356a130.653 130.653 0 00-5.5 0c-1.433.03-2.324.895-2.363 2.321a99.573 99.573 0 000 5.465c.039 1.427.93 2.271 2.363 2.324.91.034 1.822.006 2.733.006z" fill="url(#paint7_linear)"/><path d="M3.714 7.574c.042-.294.074-.59.127-.882.3-1.654 1.471-2.78 3.145-2.837a86.142 86.142 0 016.055 0c1.822.065 3.142 1.415 3.199 3.237.06 1.936.06 3.876 0 5.811-.057 1.823-1.376 3.172-3.2 3.238a82.358 82.358 0 01-6.053-.001c-1.823-.069-3.083-1.421-3.205-3.247-.01-.157-.045-.314-.068-.471V7.574zm6.288 7.486c.922 0 1.846.028 2.767-.006 1.444-.053 2.333-.915 2.367-2.358.042-1.798.042-3.598 0-5.396-.034-1.443-.923-2.325-2.367-2.356a130.653 130.653 0 00-5.5 0c-1.433.03-2.324.895-2.363 2.321a99.573 99.573 0 000 5.465c.039 1.427.93 2.271 2.363 2.324.91.034 1.822.006 2.733.006z" fill="#fff"/><path d="M10 6.796a3.203 3.203 0 100 6.406 3.203 3.203 0 000-6.406zm0 5.302a2.1 2.1 0 110-4.2 2.1 2.1 0 010 4.2zm4.153-5.45a.762.762 0 11-1.524 0 .762.762 0 011.524 0z" fill="#fff"/><defs><linearGradient id="paint1_linear" x1="7.671" y1="8.688" x2="-26.208" y2="-10.373" gradientUnits="userSpaceOnUse"><stop stop-color="#A1B5D8" stop-opacity="0"/><stop offset=".309" stop-color="#90A2BD" stop-opacity=".31"/><stop offset=".755" stop-color="#7C8B9C" stop-opacity=".757"/><stop offset="1" stop-color="#748290"/></linearGradient><linearGradient id="paint2_linear" x1="10" y1="17.65" x2="10" y2="20.767" gradientUnits="userSpaceOnUse"><stop stop-color="#FAE100" stop-opacity="0"/><stop offset=".307" stop-color="#FCA800" stop-opacity=".306"/><stop offset=".627" stop-color="#FE7300" stop-opacity=".627"/><stop offset=".869" stop-color="#FF5200" stop-opacity=".867"/><stop offset="1" stop-color="#FF4500"/></linearGradient><linearGradient id="paint3_linear" x1="8.862" y1="8.833" x2="3.914" y2="3.883" gradientUnits="userSpaceOnUse"><stop stop-color="#833AB4" stop-opacity="0"/><stop offset="1" stop-color="#833AB4"/></linearGradient><linearGradient id="paint4_linear" x1="13.707" y1="18.288" x2="11.237" y2="6.643" gradientUnits="userSpaceOnUse"><stop stop-color="#833AB4" stop-opacity="0"/><stop offset="1" stop-color="#833AB4"/></linearGradient><linearGradient id="paint5_linear" x1="14.647" y1="14.644" x2="4.727" y2="4.721" gradientUnits="userSpaceOnUse"><stop stop-color="#833AB4" stop-opacity="0"/><stop offset="1" stop-color="#833AB4"/></linearGradient><linearGradient id="paint6_linear" x1="15.383" y1="8.641" x2="12.103" y2="5.36" gradientUnits="userSpaceOnUse"><stop stop-color="#833AB4" stop-opacity="0"/><stop offset="1" stop-color="#833AB4"/></linearGradient><linearGradient id="paint7_linear" x1="13.971" y1="6.056" x2="5.882" y2="14.147" gradientUnits="userSpaceOnUse"><stop stop-color="#833AB4"/><stop offset=".092" stop-color="#9C3495"/><stop offset=".293" stop-color="#DC2546"/><stop offset=".392" stop-color="#FD1D1D"/><stop offset=".559" stop-color="#FC6831"/><stop offset=".689" stop-color="#FC9B40"/><stop offset=".752" stop-color="#FCAF45"/><stop offset=".781" stop-color="#FDB750"/><stop offset=".866" stop-color="#FECB6A"/><stop offset=".942" stop-color="#FFD87A"/><stop offset="1" stop-color="#FFDC80"/></linearGradient><radialGradient id="paint0_radial" cx="0" cy="0" r="1" gradientUnits="userSpaceOnUse" gradientTransform="matrix(22.0565 0 0 22.0516 4.1 17.475)"><stop stop-color="#FAE100"/><stop offset=".054" stop-color="#FADC04"/><stop offset=".117" stop-color="#FBCE0E"/><stop offset=".183" stop-color="#FCB720"/><stop offset=".251" stop-color="#FE9838"/><stop offset=".305" stop-color="#FF7950"/><stop offset=".492" stop-color="#FF1C74"/><stop offset="1" stop-color="#6C1CD1"/></radialGradient></defs></svg>