<svg width="42" height="35" fill="none" xmlns="http://www.w3.org/2000/svg"><path d="M13.229 15.643a10.951 10.951 0 00-3.027-.442 9.51 9.51 0 00-3.794.778c.954-3.492 3.245-9.517 7.81-10.196.422-.063.769-.368.884-.78l.998-3.568A1.084 1.084 0 0015.203.07a7.576 7.576 0 00-1.02-.07C8.702 0 3.277 5.719.987 13.907-.356 18.71-.75 25.933 2.56 30.479c1.853 2.543 4.556 3.902 8.034 4.037l.042.001c4.292 0 8.097-2.89 9.255-7.027a9.552 9.552 0 00-.881-7.306c-1.247-2.213-3.3-3.827-5.781-4.54zm26.863 4.542c-1.247-2.214-3.3-3.827-5.782-4.541a10.95 10.95 0 00-3.025-.442c-1.53 0-2.806.35-3.795.777.954-3.492 3.245-9.517 7.81-10.195.423-.063.769-.369.884-.78l.998-3.568A1.083 1.083 0 0036.285.07a7.567 7.567 0 00-1.02-.07C29.785 0 24.36 5.72 22.07 13.907c-1.344 4.804-1.738 12.026 1.573 16.573 1.852 2.543 4.556 3.902 8.033 4.037l.043.001c4.291 0 8.097-2.89 9.255-7.027a9.558 9.558 0 00-.882-7.306z" opacity=".1" fill="#D93059"/></svg>