<svg width="20" height="20" fill="none" xmlns="http://www.w3.org/2000/svg"><path d="M16.423 19.654a60.414 60.414 0 01-12.846 0A3.641 3.641 0 01.342 16.42a60.387 60.387 0 010-12.843A3.641 3.641 0 013.577.342a60.418 60.418 0 0112.846 0 3.641 3.641 0 013.235 3.235 60.393 60.393 0 010 12.843 3.641 3.641 0 01-3.235 3.234z" fill="url(#paint0_linear)"/><path d="M18.57 4.3a3.231 3.231 0 00-2.87-2.87 53.637 53.637 0 00-11.4 0A3.232 3.232 0 001.43 4.3a53.6 53.6 0 000 11.396 3.231 3.231 0 002.87 2.87c3.797.405 7.604.405 11.4 0a3.231 3.231 0 002.87-2.87 53.57 53.57 0 000-11.396z" fill="url(#paint1_linear)"/><path d="M.3 16.005l.043.415a3.642 3.642 0 003.235 3.234c4.277.457 8.567.457 12.845 0a3.642 3.642 0 003.235-3.234l.043-.415H.3z" fill="url(#paint2_linear)"/><path d="M19.996 9.296l-4.151-4.15a4.956 4.956 0 01-1.185.494 3.388 3.388 0 01-.417.086 2.578 2.578 0 00-4.372 2.315c-.594-.008-2.526-.167-4.368-1.746l-.87-.87s-1.019 1.78.48 3.13c.066.073.138.145.217.216l.02.021c-.197-.013-.789-.072-1.131-.314 0 0-.07 1.088.837 1.888l.731.738c-.223.018-.469.014-.64-.061 0 0 .151.643.738 1.159l1.024 1.03a5.306 5.306 0 01-3.107.691l6.216 6.074a60.46 60.46 0 006.405-.343 3.641 3.641 0 003.235-3.234c.253-2.372.365-4.749.338-7.124z" fill="url(#paint3_linear)"/><path d="M16.198 6.146c-.442.232-1.109.338-1.33.37a1.865 1.865 0 00-.005-.032c.751-.464.981-1.339.981-1.339a4.957 4.957 0 01-1.184.495 3.421 3.421 0 01-.417.086A2.578 2.578 0 009.87 8.041c-.69-.01-3.177-.221-5.238-2.615 0 0-1.147 2.002.782 3.37 0 0-.782-.025-1.197-.318 0 0-.122 1.93 2.1 2.54 0 0-.78.195-1.172.024 0 0 .391 1.66 2.345 1.783 0 0-1.401 1.283-3.69 1.098a7.283 7.283 0 0011.173-6.308l.002-.09-.001-.062c.744-.495 1.223-1.317 1.223-1.317z" fill="#fff"/><defs><linearGradient id="paint0_linear" x1="6.64" y1="2.811" x2="11.697" y2="13.633" gradientUnits="userSpaceOnUse"><stop stop-color="#00C3FF"/><stop offset="1" stop-color="#00B0ED"/></linearGradient><linearGradient id="paint1_linear" x1="14.23" y1="12.266" x2="-14.825" y2="-3.323" gradientUnits="userSpaceOnUse"><stop stop-color="#00B0ED" stop-opacity="0"/><stop offset="1" stop-color="#00A2CE"/></linearGradient><linearGradient id="paint2_linear" x1="10" y1="17.082" x2="10" y2="19.703" gradientUnits="userSpaceOnUse"><stop stop-color="#00B0ED" stop-opacity="0"/><stop offset="1" stop-color="#00A2CE"/></linearGradient><linearGradient id="paint3_linear" x1="19.118" y1="18.828" x2="9.349" y2="9.057" gradientUnits="userSpaceOnUse"><stop stop-color="#00B0ED" stop-opacity="0"/><stop offset="1" stop-color="#00A2CE"/></linearGradient></defs></svg>